# xmcd
#
# Track frame offsets: 
#        182
#        15262
#        27747
#        42530
#        60222
#        74127
#        91257
#        105695
#        118845
#        129855
#        149185
#        163112
#        178542
#        196192
#        208535
#        223642
#
# Disc length: 3254 seconds
#
# Revision: 2
# Processed by: cddbd v1.5.1PL0 Copyright (c) Steve Scherf et al.
# Submitted via: ExactAudioCopy v0.95b2
#
DISCID=ed0cb410
DTITLE=Pedro Fernández - Lo Mucho Que Te Quiero
DYEAR=1993
DGENRE=Latin
TTITLE0=Lo Mucho Que Te Quiero (Versión Español-Ingles)
TTITLE1=Gema
TTITLE2=Corazón
TTITLE3=Los Dos
TTITLE4=Besos de Plata
TTITLE5=Enamorada
TTITLE6=Luna de Octubre
TTITLE7=Despierta
TTITLE8=Serenata Huasteca
TTITLE9=Tu Día Feliz
TTITLE10=Mi Cariñito
TTITLE11=Tres Regalos
TTITLE12=Adiós
TTITLE13=La Rondalla
TTITLE14=Lo Mucho Que Te Quiero (Versión Español)
TTITLE15=Las Mañanitas (Potpurrí)
EXTD=
EXTT0=
EXTT1=
EXTT2=
EXTT3=
EXTT4=
EXTT5=
EXTT6=
EXTT7=
EXTT8=
EXTT9=
EXTT10=
EXTT11=
EXTT12=
EXTT13=
EXTT14=
EXTT15=
PLAYORDER=
